<svg id="Layer_1" enable-background="new 0 0 70.866 56.693" height="56.693" viewBox="0 0 70.866 56.693" width="70.866" xmlns="http://www.w3.org/2000/svg"><path fill="#ff0000" d="m51.298 19.604c0-8.496-6.891-15.383-15.385-15.383-8.497 0-15.387 6.887-15.387 15.383 0 2.805.766 5.428 2.072 7.691h-.012l13.322 26.925 13.328-26.924h-.016c1.315-2.264 2.078-4.887 2.078-7.692zm-15.386 4.567c-3.568 0-6.463-2.893-6.463-6.461 0-3.57 2.895-6.465 6.463-6.465 3.572 0 6.465 2.895 6.465 6.465-.001 3.568-2.893 6.461-6.465 6.461z"/></svg>
